<?xml version="1.0" encoding="utf-8"?>
<!-- Generator: Adobe Illustrator 26.0.0, SVG Export Plug-In . SVG Version: 6.00 Build 0)  -->
<svg version="1.1" xmlns="http://www.w3.org/2000/svg" xmlns:xlink="http://www.w3.org/1999/xlink" x="0px" y="0px"
	 viewBox="0 0 95 95" style="enable-background:new 0 0 95 95;" xml:space="preserve">
<g id="Layer_2">
</g>
<g id="Layer_1">
	<path d="M47.5,0C21.3,0,0,21.3,0,47.5S21.3,95,47.5,95S95,73.7,95,47.5S73.7,0,47.5,0z M47.5,27.2c8.2,0,14.9,6.7,14.9,14.9
		S55.7,57,47.5,57s-14.9-6.7-14.9-14.9S39.3,27.2,47.5,27.2z M21.5,76.3v-2.2c0-6.3,5.1-11.5,11.5-11.5h29c6.3,0,11.5,5.1,11.5,11.5
		v2.2c-6.9,6.2-16,10-26,10S28.4,82.5,21.5,76.3z"/>
</g>
</svg>
